<svg t="1680148595647" class="icon" viewBox="0 0 1024 1024" version="1.1" xmlns="http://www.w3.org/2000/svg" p-id="6128" width="250" height="250"><path d="M725.333333 106.666667a42.666667 42.666667 0 0 1 42.56 39.466666L768 149.333333h85.333333a128 128 0 0 1 128 128v512a128 128 0 0 1-128 128H170.666667a128 128 0 0 1-128-128V277.333333a128 128 0 0 1 128-128h85.333333a42.666667 42.666667 0 0 1 85.226667-3.2L341.333333 149.333333h341.333334a42.666667 42.666667 0 0 1 42.666666-42.666666z m-76.522666 373.546666l-2.346667 2.133334-165.930667 165.973333-60.330666-60.373333a42.666667 42.666667 0 0 0-58.026667-2.154667l-2.325333 2.176a42.666667 42.666667 0 0 0-2.154667 58.005333l2.154667 2.346667 90.517333 90.496a42.666667 42.666667 0 0 0 58.005333 2.154667l2.346667-2.154667 196.096-196.117333a42.666667 42.666667 0 0 0-58.026667-62.506667zM256 234.666667H170.666667a42.666667 42.666667 0 0 0-42.666667 42.666666v64h768v-64a42.666667 42.666667 0 0 0-39.466667-42.56L853.333333 234.666667h-85.333333a42.666667 42.666667 0 0 1-85.226667 3.2L682.666667 234.666667H341.333333a42.666667 42.666667 0 0 1-85.226666 3.2L256 234.666667z"  p-id="6129"></path></svg>