<?xml version="1.0" encoding="UTF-8"?>
<svg width="58px" height="58px" viewBox="0 0 58 58" version="1.1" xmlns="http://www.w3.org/2000/svg" xmlns:xlink="http://www.w3.org/1999/xlink">
    <title>官</title>
    <g id="官" stroke="none" stroke-width="1" fill="none" fill-rule="evenodd">
        <circle id="椭圆形" fill="#297AFF" cx="29" cy="29" r="29"></circle>
        <path d="M19.0503636,23.5128485 L19.0503636,20.6444848 L38.7703636,20.6444848 L38.7703636,23.5128485 L41.6984848,23.5128485 L41.6984848,18.0450303 L31.2110303,18.0450303 C30.9421212,17.1785455 30.4640606,16.0431515 30.0158788,15.2065455 L27.1773939,15.834 C27.5359394,16.4913333 27.8347273,17.2980606 28.0438788,18.0450303 L16.2716364,18.0450303 L16.2716364,23.5128485 L19.0503636,23.5128485 Z M22.8150909,42.7249091 L22.8150909,41.47 L36.1111515,41.47 L36.1111515,42.5755152 L38.9496364,42.5755152 L38.9496364,33.1935758 L22.8150909,33.1935758 L22.8150909,30.7733939 L37.9038788,30.7733939 L37.9038788,22.8555152 L19.9766061,22.8555152 L19.9766061,42.7249091 L22.8150909,42.7249091 Z M35.1251515,28.3830909 L22.8150909,28.3830909 L22.8150909,25.275697 L35.1251515,25.275697 L35.1251515,28.3830909 Z M36.1111515,39.0199394 L22.8150909,39.0199394 L22.8150909,35.6436364 L36.1111515,35.6436364 L36.1111515,39.0199394 Z" fill="#FFFFFF" fill-rule="nonzero"></path>
    </g>
</svg>