<?xml version="1.0" encoding="UTF-8"?>
<svg width="58px" height="58px" viewBox="0 0 58 58" version="1.1" xmlns="http://www.w3.org/2000/svg" xmlns:xlink="http://www.w3.org/1999/xlink">
    <title>团队</title>
    <g id="团队" stroke="none" stroke-width="1" fill="none" fill-rule="evenodd">
        <circle id="椭圆形备份-5" fill="#297AFF" cx="29" cy="29" r="29"></circle>
        <g id="编组-12" transform="translate(16.696970, 14.939394)" stroke="#FFFFFF" stroke-width="2">
            <line x1="12.7424242" y1="18.0151515" x2="12.7424242" y2="24.1666667" id="直线-3" stroke-linecap="square"></line>
            <path d="M11.8636364,1 C13.8928644,1 15.7299856,1.82250718 17.0597998,3.15232138 C18.389614,4.48213558 19.2121212,6.31925679 19.2121212,8.34848485 C19.2121212,10.5507804 18.2435001,12.5269187 16.7085611,13.8736211 L16.7085611,13.8736211 L23.1995022,18.6599057 C23.4551592,18.8484034 23.6060606,19.1471479 23.6060606,19.4647827 L23.6060606,19.4647827 L23.6060606,27 C23.6060606,27.2761424 23.4941318,27.5261424 23.3131674,27.7071068 C23.132203,27.8880712 22.882203,28 22.6060606,28 L22.6060606,28 L2,28 C1.72385763,28 1.47385763,27.8880712 1.29289322,27.7071068 C1.11192881,27.5261424 1,27.2761424 1,27 L1,27 L1,19.3828827 C1,19.0885195 1.12969383,18.8091085 1.35451406,18.6191106 L1.35451406,18.6191106 L6.99479407,13.852556 C5.47373443,12.5063461 4.51515152,10.5393244 4.51515152,8.34848485 C4.51515152,6.31925679 5.3376587,4.48213558 6.6674729,3.15232138 C7.99728709,1.82250718 9.83440831,1 11.8636364,1 Z" id="形状结合"></path>
        </g>
    </g>
</svg>