<?xml version="1.0" encoding="UTF-8"?>
<svg width="58px" height="58px" viewBox="0 0 58 58" version="1.1" xmlns="http://www.w3.org/2000/svg" xmlns:xlink="http://www.w3.org/1999/xlink">
    <title>专业</title>
    <g id="专业" stroke="none" stroke-width="1" fill="none" fill-rule="evenodd">
        <circle id="椭圆形备份-5" fill="#297AFF" cx="29" cy="29" r="29"></circle>
        <g id="安全" transform="translate(10.000000, 10.000000)" fill="#FFFFFF" fill-rule="nonzero">
            <rect id="矩形" opacity="0" x="0" y="0" width="38" height="38"></rect>
            <path d="M24.8181818,19 L14.1818182,19 C13.529118,19 13,18.5522848 13,18 L13,17 L26,17 L26,18 C26,18.5522848 25.470882,19 24.8181818,19 L24.8181818,19 Z" id="路径"></path>
            <path d="M18.5120455,4.21137346 L7.46659093,9.13876959 C6.57572566,9.53640707 6.00040877,10.4307832 6,11.4187026 L6,19.1411968 C6,23.8711233 8.08390909,28.0977203 11.7559091,31.0105527 L18.0849546,35.5442555 C18.9333624,36.1519148 20.0666376,36.1519148 20.9150454,35.5442555 L27.1962273,31.0466828 C30.9160909,28.0970974 33,23.8705004 33,19.1411968 L33,11.4193255 C33,10.4309541 32.4246819,9.53596612 31.5334091,9.13814665 L20.4879545,4.21075055 C19.8584019,3.92974982 19.1415981,3.92974982 18.5120455,4.21075055 L18.5120455,4.21137346 Z M8.45454546,11.4193255 L19.5,6.49192937 L30.5454545,11.4193255 L30.5454545,19.1411968 C30.5454545,23.0943265 28.8168409,26.6008135 25.7327045,29.0470695 L19.5,33.5078891 L13.2188182,29.0103164 C10.1831591,26.5989447 8.45454546,23.0930806 8.45454546,19.1399509 L8.45454546,11.4193255 Z" id="形状"></path>
            <path d="M19,11 C19.5233046,10.9998044 19.9582416,11.4762693 19.9974898,12.0927361 L20,12.1813363 L20,22.8133625 C20.0024038,23.4505926 19.5765627,23.9752441 19.0375252,23.9991536 C18.4984877,24.023063 18.0405423,23.5376125 18.0025,22.9019627 L18,22.8133625 L18,12.1813363 C18,11.8680265 18.1053563,11.567549 18.2928917,11.3460054 C18.4804271,11.1244619 18.7347798,11 19,11 Z" id="路径"></path>
        </g>
    </g>
</svg>