<?xml version="1.0" encoding="UTF-8"?>
<svg width="58px" height="58px" viewBox="0 0 58 58" version="1.1" xmlns="http://www.w3.org/2000/svg" xmlns:xlink="http://www.w3.org/1999/xlink">
    <title>服务</title>
    <g id="服务" stroke="none" stroke-width="1" fill="none" fill-rule="evenodd">
        <circle id="椭圆形备份-5" fill="#297AFF" cx="29" cy="29" r="29"></circle>
        <path d="M18.08,42.268 C19.312,39.692 19.844,36.22 20.096,32.916 L23.876,32.916 L23.876,39.216 C23.876,39.608 23.736,39.72 23.4,39.748 C23.2544,39.748 22.98784,39.75248 22.646912,39.754272 L22.085568,39.754048 C21.68192,39.75136 21.2272,39.7424 20.768,39.72 C21.104,40.364 21.412,41.568 21.468,42.212 C23.344,42.24 24.492,42.184 25.276,41.736 C26.06,41.316 26.284,40.532 26.284,39.272 L26.284,17.516 L17.94,17.516 L17.94,27.512 C17.94,31.6 17.8,37.2 15.952,41.064 C16.568,41.288 17.632,41.876 18.08,42.268 Z M40.508,42.24 C40.9,41.596 41.6,40.7 42.188,40.224 C40.508,39.44 39.024,38.264 37.736,36.864 C39.416,34.372 40.676,31.292 41.348,27.54 L39.836,27.008 L39.416,27.092 L30.82,27.092 L30.82,20.008 L38.044,20.008 L38.044,22.92 C38.044,23.256 37.904,23.34 37.456,23.34 C37.064,23.368 35.496,23.368 33.956,23.312 C34.264,23.928 34.656,24.852 34.768,25.524 L35.5176016,25.5232891 C37.203125,25.5183125 38.4465,25.4785 39.304,25.16 C40.284,24.824 40.536,24.152 40.536,22.948 L40.536,17.572 L28.356,17.572 L28.356,42.212 L30.82,42.212 L30.82,40.224 C31.352,40.672 31.996,41.512 32.332,42.1 C33.788,41.232 35.076,40.14 36.252,38.796 C37.484,40.196 38.912,41.372 40.508,42.24 Z M23.876,23.9 L20.292,23.9 L20.292,19.924 L23.876,19.924 L23.876,23.9 Z M23.876,30.452 L20.236,30.452 C20.292,29.416 20.292,28.408 20.292,27.512 L20.292,26.336 L23.876,26.336 L23.876,30.452 Z M30.82,40.168 L30.82,29.472 L31.324,29.472 C32.164,32.216 33.312,34.736 34.796,36.864 C33.62,38.264 32.276,39.412 30.82,40.168 Z M36.196,34.876 C35.076,33.252 34.18,31.432 33.536,29.472 L38.548,29.472 C37.988,31.488 37.176,33.28 36.196,34.876 Z" id="服" fill="#FFFFFF" fill-rule="nonzero"></path>
    </g>
</svg>