<svg t="1681027064487" class="icon" viewBox="0 0 1024 1024" version="1.1" xmlns="http://www.w3.org/2000/svg" p-id="26287" width="250" height="250"><path d="M768 96h-88.32a85.333 85.333 0 0 1 2.987 21.333 85.333 85.333 0 0 1-85.334 85.334H426.667a85.333 85.333 0 0 1-85.334-85.334A85.333 85.333 0 0 1 344.32 96H256a117.547 117.547 0 0 0-117.333 117.333V832A117.547 117.547 0 0 0 256 949.333h512A117.547 117.547 0 0 0 885.333 832V213.333A117.547 117.547 0 0 0 768 96zM597.333 736H298.667a32 32 0 0 1 0-64h298.666a32 32 0 0 1 0 64z m128-181.333H298.667a32 32 0 0 1 0-64h426.666a32 32 0 0 1 0 64z m0-180.48H298.667a32 32 0 0 1 0-64h426.666a32 32 0 0 1 0 64zM597.333 160H426.667a42.667 42.667 0 0 1 0-85.333h170.666a42.667 42.667 0 0 1 0 85.333z" p-id="26288"></path></svg>