<svg t="1679112419062" class="icon" viewBox="0 0 1024 1024" version="1.1" xmlns="http://www.w3.org/2000/svg" p-id="24959" width="48" height="48"><path d="M970.437 945.992 438.863 945.992c-13.988 0-25.372-11.45-25.372-25.538l0-59.458c0-120.416 72.043-227.244 183.511-272.112l6.712-2.672-5.676-4.506c-42.197-33.417-66.435-83.293-66.435-136.908 0-96.046 77.65-174.198 173.062-174.198s173.03 78.152 173.03 174.198c0 53.615-24.203 103.523-66.401 136.908l-5.675 4.506 6.71 2.672c111.469 44.868 183.512 151.696 183.512 272.112l0 59.458C995.842 934.542 984.457 945.992 970.437 945.992zM468.875 395.39c-9.48 60.959 0.201 126.793 39.06 173.463l6.51 5.175-7.678 3.071C411.722 615.524 364.65 700.586 346.79 798.702c-17.226 0.634-27.341 0.533-27.341 0.533C177.633 771.694 66.665 661.693 36.251 518.276c-20.097-94.844-2.471-192.092 49.642-273.782 52.112-81.69 132.367-137.909 225.976-158.307 24.972-5.442 50.477-8.179 75.749-8.179 104.424 0 206.413 48.24 274.149 129.33 0 0 3.472 5.909 9.214 16.425C561.983 224.163 480.593 320.108 468.875 395.39zM389.02 249.668l-49.574 0 0 188.954L226.173 552.828l36.689 27.242L389.02 452.81 389.02 249.668z"  p-id="24960"></path></svg>