<svg t="1679492416076" class="icon" viewBox="0 0 1024 1024" version="1.1" xmlns="http://www.w3.org/2000/svg" p-id="5456" width="250" height="250"><path d="M511.849574 308.086181c73.213319 0 132.55268 59.318895 132.55268 132.507655 0.002047 73.213319-59.339361 132.554727-132.554726 132.554727-108.875469-0.002047-170.230739-123.823896-107.250462-210.401567 20.472223 42.659504 85.305704 28.230915 85.305704-19.371148 0.005117-11.969589-4.683663-22.811496-12.268393-30.829084a132.804413 132.804413 0 0 1 34.213151-4.455466l0.002046-0.005117z" fill="#1296db" p-id="5457"></path><path d="M550.417908 168.049055c-1.895159 4.653987-71.393884 4.519934-77.136667 0.005116l0.005116-96.330783C164.999608 103.540984 28.573722 481.885182 249.588999 702.877947c233.059567 233.027845 633.141816 67.154335 633.141816-262.233969 0.002047-190.981301-144.697254-349.522836-332.317-368.921613l0.004093 96.32669z m-38.568334-2.648312l-0.002046 0.005117c-5.067402 0-10.106152 0.099261-15.095783 0.380669V70.040053h30.192589v95.746476c-4.991678-0.278339-10.030427-0.385786-15.09476-0.385786z m0-149.630603c377.172515 0 567.457969 458.146572 300.413447 725.243283-9.645665 9.668178-19.778423 18.836983-30.292873 27.543254-238.444194 192.763897-491.158364 47.636855-540.242171-0.005116C48.305073 608.962162 33.970628 317.687844 211.431011 140.230531 288.310829 63.320014 394.544126 15.77014 511.847528 15.77014h0.002046z" fill="#1296db" p-id="5458"></path><path d="M511.849574 214.7414c-124.71417 0-225.880066 101.113707-225.880065 225.852436 0 200.547148 243.645649 301.689507 385.594308 159.741872 141.947636-141.974242 40.832906-385.594308-159.716289-385.594308h0.002046z m121.556254 104.320742h-0.002047c67.130799 67.105216 67.132846 176.008314 0 243.113531-107.987241 107.989287-293.468282 31.131982-293.468281-121.581837 0-152.663677 185.486157-229.518935 293.470328-121.531694z" fill="#1296db" p-id="5459"></path><path d="M689.893241 262.574729C531.657673 104.384187 260.079914 217.030531 260.079914 440.643978c0 223.563305 271.573666 336.212719 429.813327 177.996594 98.31804-98.31497 98.312923-257.726314 0-356.065843z m-139.475333-94.525674c223.078259 31.291618 316.908087 306.326098 156.04672 467.188487-172.927146 172.950682-469.858288 49.795003-469.858288-194.593564 0-138.078523 102.05617-253.701659 236.674901-272.589807 26.153608-2.705616 38.58573-4.189407 77.136667-0.005116zM473.286357 954.264892v-90.529672c-65.889531-5.925954-127.467882-26.927225-181.206699-59.48774L276.169325 954.264892h197.117032z m53.657977 0v-89.074533h-30.192589v89.074533h30.192589z m23.473574-90.529672v90.529672h197.113962L731.621537 804.292505c-53.744957 32.511396-115.299772 53.516761-181.208746 59.447832l0.005117-0.005117z m231.553264-95.179566l22.249702 209.964616c1.634217 15.786513-10.920702 29.635912-26.781916 29.635912l0.005116 0.074701H246.230515c-16.266443 0-29.098677-13.9241-26.552696-31.818619l22.051181-207.861726c-21.356358-18.82675 280.129512 177.792957 540.242172 0.005116z" fill="#1296db" p-id="5460"></path></svg>